Coordinates
version=1
nRows=24
nColumns=19
inDegrees=yes

Units are S.I. units (second, meters, Newtons, ...)
If the header above contains a line with 'inDegrees', this indicates whether rotational values are in degrees (yes) or radians (no).

endheader
time	pelvis_tilt	pelvis_list	pelvis_rotation	pelvis_tx	pelvis_ty	pelvis_tz	hip_flexion_r	hip_adduction_r	hip_rotation_r	knee_angle_r	knee_angle_r_beta	ankle_angle_r	hip_flexion_l	hip_adduction_l	hip_rotation_l	knee_angle_l	knee_angle_l_beta	ankle_angle_l
     16.99333333	     -5.79466043	      9.83012541	      5.31861858	      2.47381274	      0.93248801	      1.01051758	    -18.52186456	    -16.15902364	    -25.92631244	     56.04232673	      0.97812312	    -11.58743561	     25.04808546	     14.73442086	     -8.61661905	      5.28154528	      0.09218035	      4.93579911
     17.00000000	     -4.85035642	     10.69271332	      5.36562047	      2.47291698	      0.92948584	      1.00981951	    -18.30336004	    -17.31331306	    -24.81245238	     59.98253747	      1.04689277	    -11.08853141	     24.41460203	     15.47836480	     -9.88728792	      7.66760198	      0.13382490	      4.59981147
     17.00666667	     -4.17853345	     11.40785196	      5.48915138	      2.47172708	      0.92592127	      1.00924257	    -17.60182936	    -18.24701257	    -23.56674139	     63.97449945	      1.11656565	    -10.55609975	     24.24365804	     15.99022476	    -11.17899423	     10.69099908	      0.18659313	      4.36479311
     17.01333333	     -3.10348671	     12.28585748	      5.58957485	      2.47052788	      0.92259389	      1.00899224	    -17.34425628	    -19.25990061	    -22.52598449	     67.83248011	      1.18390012	     -9.98957049	     23.57361445	     16.58002520	    -12.31846448	     13.85911948	      0.24188727	      4.25206591
     17.02000000	     -2.13320301	     13.09512267	      5.74686571	      2.46916669	      0.91898627	      1.00890762	    -16.86401498	    -20.17025911	    -21.51378744	     71.65278289	      1.25057698	     -9.35849011	     23.01057555	     17.05011019	    -13.28902525	     17.24900967	      0.30105201	      4.41589587
     17.02666667	     -1.72697074	     13.59082026	      5.96696356	      2.46747856	      0.91479585	      1.00893768	    -15.46760149	    -20.68554041	    -20.11890039	     75.49560777	      1.31764693	     -8.69768616	     23.11185064	     17.19147711	    -14.02926044	     20.89501212	      0.36468676	      4.89050602
     17.03333333	     -0.71749057	     14.36140764	      6.19749975	      2.46587972	      0.91132517	      1.00915262	    -14.88048062	    -21.46138134	    -19.21593499	     79.07593496	      1.38013542	     -7.95823030	     22.31090336	     17.63473072	    -14.40611836	     24.22421793	      0.42279236	      5.69019532
     17.04000000	     -0.60898899	     14.58731517	      6.45700368	      2.46380848	      0.90711525	      1.00938470	    -12.81759948	    -21.63800993	    -17.64614793	     82.72792604	      1.44387469	     -7.23698052	     22.55516572	     17.55896271	    -14.59966808	     27.72379131	      0.48387144	      6.91604906
     17.04666667	     -0.19725087	     14.84188800	      6.68989658	      2.46163068	      0.90359445	      1.00971125	    -11.04333064	    -21.79778575	    -16.22183128	     86.13851213	      1.50340065	     -6.49051406	     22.26795369	     17.56618296	    -14.48941780	     30.89126021	      0.53915420	      8.43301347
     17.05333333	     -0.17921746	     14.90102777	      7.02040580	      2.45922987	      0.89999204	      1.00982009	     -8.67208863	    -21.78551447	    -14.73651529	     89.43303886	      1.56090099	     -5.74784757	     22.27878799	     17.50779581	    -14.07165793	     33.85180510	      0.59082546	     10.21974957
     17.06000000	     -0.19613386	     14.74394761	      7.26978577	      2.45663803	      0.89699669	      1.01007566	     -6.02421610	    -21.48102599	    -13.09251332	     92.49153640	      1.61428184	     -5.13023483	     22.14211429	     17.28107391	    -13.45658851	     36.43711286	      0.63594759	     12.17519364
     17.06666667	     -0.30822979	     14.33843059	      7.42564986	      2.45389523	      0.89446486	      1.01030117	     -3.06530201	    -20.87279489	    -11.30912114	     95.29136111	      1.66314800	     -4.58042662	     21.95989720	     16.83803555	    -12.75913693	     38.70996625	      0.67561636	     14.22964537
     17.07333333	     -0.83711853	     13.77701098	      7.62381399	      2.45103859	      0.89201763	      1.01027460	      0.47559068	    -20.16981273	     -9.54882798	     97.87704645	      1.70827672	     -4.12385076	     22.02708090	     16.36091685	    -11.90914635	     40.58718482	      0.70838001	     16.24854099
     17.08000000	     -1.31231655	     13.03184820	      7.64929825	      2.44817625	      0.89023282	      1.01033973	      4.09754501	    -19.21946710	     -7.75537757	    100.11618805	      1.74735712	     -3.77343403	     21.84795314	     15.66241641	    -11.12593050	     42.07433794	      0.73433573	     18.19050161
     17.08666667	     -1.79894133	     12.17100450	      7.55275420	      2.44546702	      0.88909604	      1.01038796	      7.77316103	    -18.12123961	     -6.03247229	    101.96538068	      1.77963162	     -3.49788045	     21.44442313	     14.84389828	    -10.36444526	     43.09724468	      0.75218882	     19.96820359
     17.09333333	     -2.13248303	     11.26775052	      7.30368783	      2.44304690	      0.88874712	      1.01046081	     11.25009856	    -16.96854957	     -4.46071022	    103.38214131	      1.80435875	     -3.27460761	     20.62856661	     13.92035965	     -9.73641358	     43.66739298	      0.76213978	     21.51376147
     17.10000000	     -2.33321548	     10.38608488	      6.98104970	      2.44107523	      0.88916264	      1.01046170	     14.44731782	    -15.87587991	     -3.13835849	    104.34347904	      1.82113726	     -3.02729554	     19.39568075	     12.98899785	     -9.20046994	     43.76060237	      0.76376659	     22.84289740
     17.10666667	     -2.80237312	      9.49827820	      6.69233296	      2.43955027	      0.88983727	      1.01022989	     17.79667690	    -14.89188928	     -2.07309671	    104.90453316	      1.83092950	     -2.75138563	     18.21493496	     12.10671710	     -8.66397510	     43.44815438	      0.75831335	     23.86307080
     17.11333333	     -2.85821879	      8.65310374	      6.32146514	      2.43876222	      0.89164751	      1.00989617	     20.44308312	    -14.01238628	     -1.34111225	    104.93521610	      1.83146502	     -2.38834191	     16.29581086	     11.20703593	     -8.23606622	     42.63849648	      0.74418215	     24.59657905
     17.12000000	     -2.89314046	      7.81573759	      5.90609075	      2.43855811	      0.89401672	      1.00954071	     22.86385526	    -13.18084804	     -0.82441268	    104.53131481	      1.82441561	     -1.94650151	     14.14166129	     10.29742692	     -7.92146095	     41.45206866	      0.72347508	     24.97257751
     17.12666667	     -2.77521503	      7.00762634	      5.45750501	      2.43905641	      0.89708387	      1.00897788	     24.86526420	    -12.48565500	     -0.58334228	    103.68796478	      1.80969638	     -1.37623787	     11.59459272	      9.41149541	     -7.72226506	     39.86408246	      0.69575949	     24.98890434
     17.13333333	     -3.21903189	      6.13082886	      5.37126767	      2.44005245	      0.89978627	      1.00781853	     27.16279422	    -12.05014295	     -0.91740967	    102.49911021	      1.78894695	     -0.67332172	      9.57389868	      8.58846063	     -7.24676109	     38.16052559	      0.66602682	     24.69677872
     17.14000000	     -1.99214511	      5.39375349	      4.74422834	      2.44194362	      0.90510873	      1.00716849	     27.39142463	    -11.48757561	     -1.16979367	    100.77235590	      1.75880941	      0.16834618	      5.36575036	      7.72166371	     -7.22830310	     35.64683886	      0.62215471	     23.79567554
     17.14666667	     -1.54627108	      4.50111683	      4.54869678	      2.44414535	      0.90961578	      1.00590281	     28.17643645	    -11.11392622	     -2.01534845	     98.78015874	      1.72403901	      1.09078081	      2.05249791	      6.82460477	     -6.89348421	     33.21712442	      0.57974819	     22.53160853
